<?xml version="1.0" encoding="utf-8"?>
<!-- Generator: Adobe Illustrator 26.2.1, SVG Export Plug-In . SVG Version: 6.00 Build 0)  -->
<svg version="1.1" id="Layer_1" xmlns="http://www.w3.org/2000/svg" xmlns:xlink="http://www.w3.org/1999/xlink" x="0px" y="0px"
	 viewBox="0 0 2000 777" style="enable-background:new 0 0 2000 777;" xml:space="preserve">
<style type="text/css">
	.st0{fill:#AC8C30;}
	.st1{fill:#F0C219;}
	.st2{fill:#CFA82B;}
	.st3{fill:#FBC918;}
	.st4{fill:#F09720;}
	.st5{fill:#CE8329;}
	.st6{fill:#F99C1D;}
	.st7{fill:#F8FBFE;}
	.st8{fill:url(#SVGID_1_);}
	.st9{fill:url(#SVGID_00000017493386083938508250000017375239406760975751_);}
	.st10{opacity:0.65;fill:#FBC918;}
	.st11{opacity:0.8;fill:#FBC918;}
	.st12{fill:#422C21;}
	.st13{fill:url(#SVGID_00000036950339653332596330000011114408189474548100_);}
	.st14{fill:url(#SVGID_00000183237244933351331380000012053960902840296118_);}
	.st15{font-family:'MyriadPro-Regular';}
	.st16{font-size:5.6313px;}
	.st17{fill:url(#SVGID_00000114789438914445545670000015552464263748591285_);}
	.st18{opacity:0.05;fill:#020202;}
	.st19{fill:url(#SVGID_00000147188658067930005020000005944867608494114729_);}
	.st20{fill:url(#SVGID_00000106853268463529626880000010292571034689402758_);}
	.st21{fill:url(#SVGID_00000166656998777459753530000008719031356909566338_);}
	.st22{fill:url(#SVGID_00000078025374670954471440000006691598045310890150_);}
	.st23{fill:url(#SVGID_00000008108194265553498520000008315038448775819707_);}
</style>
<text transform="matrix(1 0 0 1 1029.1445 344.8748)" class="st15 st16"> </text>
<g>
	<linearGradient id="SVGID_1_" gradientUnits="userSpaceOnUse" x1="386.6207" y1="610.655" x2="194.6555" y2="264.6949">
		<stop  offset="0" style="stop-color:#F0C219"/>
		<stop  offset="1" style="stop-color:#FBC918"/>
	</linearGradient>
	<path class="st8" d="M500.59,573.42c2.48,3.55-0.06,8.43-4.4,8.43H267.77l-0.37-0.53L102.95,342.07c-2.45-3.56,0.1-8.4,4.42-8.4
		h225.65c1.8,0,3.49,0.91,4.48,2.41l49.26,74.77L500.59,573.42L500.59,573.42z"/>
	<polygon class="st18" points="351.8,358.79 267.6,581.51 436.52,581.51 446.86,497.99 	"/>
	
		<linearGradient id="SVGID_00000003783761565221146990000006424465310922090138_" gradientUnits="userSpaceOnUse" x1="375.1112" y1="582.7364" x2="663.7356" y2="201.7358">
		<stop  offset="0" style="stop-color:#F99C1D"/>
		<stop  offset="1" style="stop-color:#FBC918"/>
	</linearGradient>
	<path style="fill:url(#SVGID_00000003783761565221146990000006424465310922090138_);" d="M739.41,248.55l-233.05,333.3H267.62
		l0.37-0.53l119.37-170.47l149.06-213.4c1.01-1.44,2.66-2.3,4.42-2.3h170.76C739.05,195.15,755.15,226.05,739.41,248.55z"/>
	<g>
		<g>
			<path class="st12" d="M784.68,348.14l35.81,112.56h1.37l35.88-112.56h34.72l-51.07,148.15h-40.37l-51.14-148.15H784.68z"/>
			<path class="st12" d="M959.88,498.46c-11.24,0-20.94-2.4-29.12-7.2c-8.17-4.8-14.48-11.5-18.92-20.11
				c-4.44-8.61-6.66-18.6-6.66-29.99c0-11.48,2.22-21.52,6.66-30.13c4.44-8.61,10.74-15.31,18.92-20.11
				c8.17-4.8,17.88-7.2,29.12-7.2c11.24,0,20.94,2.4,29.12,7.2c8.17,4.8,14.48,11.5,18.92,20.11c4.44,8.61,6.66,18.65,6.66,30.13
				c0,11.38-2.22,21.38-6.66,29.99c-4.44,8.61-10.74,15.31-18.92,20.11S971.12,498.46,959.88,498.46z M960.03,474.59
				c5.11,0,9.38-1.46,12.8-4.38c3.42-2.92,6.02-6.91,7.78-11.97c1.76-5.06,2.64-10.83,2.64-17.29c0-6.46-0.88-12.23-2.64-17.29
				c-1.76-5.06-4.35-9.07-7.78-12.01c-3.42-2.94-7.69-4.41-12.8-4.41c-5.16,0-9.49,1.47-12.98,4.41c-3.5,2.94-6.13,6.94-7.89,12.01
				c-1.76,5.06-2.64,10.83-2.64,17.29c0,6.46,0.88,12.23,2.64,17.29c1.76,5.06,4.39,9.05,7.89,11.97
				C950.54,473.13,954.87,474.59,960.03,474.59z"/>
			<path class="st12" d="M1093.78,385.18v23.15h-66.91v-23.15H1093.78z M1042.06,358.56h30.82v103.59c0,2.85,0.43,5.05,1.3,6.62
				c0.87,1.57,2.09,2.67,3.65,3.29c1.57,0.63,3.39,0.94,5.46,0.94c1.45,0,2.89-0.13,4.34-0.4c1.45-0.26,2.56-0.47,3.33-0.62
				l4.85,22.93c-1.54,0.48-3.71,1.05-6.51,1.7c-2.8,0.65-6.2,1.05-10.2,1.19c-7.43,0.29-13.93-0.7-19.5-2.97
				c-5.57-2.27-9.9-5.79-12.98-10.56c-3.09-4.77-4.61-10.8-4.56-18.08V358.56z"/>
			<path class="st12" d="M1129.3,370.86c-4.58,0-8.5-1.52-11.76-4.56s-4.88-6.7-4.88-11s1.64-7.97,4.92-11.03
				c3.28-3.06,7.19-4.59,11.72-4.59c4.58,0,8.5,1.52,11.75,4.56s4.88,6.7,4.88,11c0,4.29-1.63,7.97-4.88,11.03
				C1137.8,369.33,1133.88,370.86,1129.3,370.86z M1113.82,496.29V385.18h30.82v111.11H1113.82z"/>
			<path class="st12" d="M1200.05,432.06v64.24h-30.82V385.18h29.37v19.6h1.3c2.46-6.46,6.58-11.59,12.37-15.37
				c5.79-3.79,12.8-5.68,21.05-5.68c7.72,0,14.44,1.69,20.18,5.06c5.74,3.38,10.2,8.19,13.38,14.43c3.18,6.25,4.77,13.68,4.77,22.32
				v70.75h-30.82v-65.25c0.05-6.8-1.69-12.12-5.21-15.95c-3.52-3.83-8.37-5.75-14.54-5.75c-4.15,0-7.8,0.89-10.96,2.68
				c-3.16,1.79-5.62,4.38-7.38,7.78C1201,423.2,1200.09,427.28,1200.05,432.06z"/>
			<path class="st12" d="M1345.96,540.28c-9.98,0-18.53-1.36-25.64-4.09c-7.11-2.73-12.77-6.43-16.96-11.1
				c-4.2-4.68-6.92-9.94-8.17-15.77l28.5-3.83c0.87,2.22,2.24,4.29,4.12,6.22c1.88,1.93,4.38,3.48,7.49,4.67
				c3.11,1.18,6.91,1.77,11.39,1.77c6.7,0,12.24-1.63,16.6-4.88c4.36-3.26,6.55-8.69,6.55-16.31v-20.33h-1.3
				c-1.35,3.09-3.38,6-6.08,8.75c-2.7,2.75-6.17,4.99-10.42,6.73c-4.24,1.74-9.31,2.6-15.19,2.6c-8.34,0-15.93-1.94-22.75-5.82
				c-6.82-3.88-12.25-9.84-16.28-17.87c-4.03-8.03-6.04-18.19-6.04-30.49c0-12.59,2.05-23.1,6.15-31.54
				c4.1-8.44,9.56-14.76,16.39-18.95c6.82-4.2,14.31-6.29,22.46-6.29c6.22,0,11.43,1.05,15.63,3.15s7.58,4.7,10.16,7.81
				c2.58,3.11,4.57,6.16,5.97,9.15h1.16v-18.66h30.6v112.2c0,9.45-2.31,17.36-6.94,23.73s-11.03,11.15-19.21,14.36
				C1365.96,538.67,1356.56,540.28,1345.96,540.28z M1346.61,471.55c4.97,0,9.17-1.24,12.62-3.73c3.45-2.48,6.1-6.05,7.96-10.71
				c1.86-4.65,2.79-10.24,2.79-16.75s-0.92-12.16-2.75-16.96c-1.83-4.8-4.48-8.52-7.96-11.18c-3.47-2.65-7.69-3.98-12.66-3.98
				c-5.06,0-9.33,1.36-12.8,4.09c-3.47,2.72-6.1,6.5-7.89,11.32c-1.78,4.82-2.68,10.39-2.68,16.71c0,6.42,0.9,11.95,2.71,16.6
				s4.44,8.25,7.89,10.78C1337.29,470.29,1341.54,471.55,1346.61,471.55z"/>
			<path class="st12" d="M1498.23,496.29h-33.57l51.14-148.15h40.37l51.07,148.15h-33.57L1536.57,382h-1.16L1498.23,496.29z
				 M1496.13,438.06h79.29v24.45h-79.29V438.06z"/>
			<path class="st12" d="M1624.46,537.96V385.18h30.38v18.66h1.37c1.35-2.99,3.31-6.04,5.9-9.15c2.58-3.11,5.96-5.71,10.13-7.81
				c4.17-2.1,9.37-3.15,15.59-3.15c8.1,0,15.58,2.11,22.43,6.33c6.85,4.22,12.32,10.56,16.42,19.03c4.1,8.46,6.15,19.06,6.15,31.79
				c0,12.39-1.99,22.85-5.97,31.36c-3.98,8.51-9.38,14.95-16.2,19.31c-6.82,4.37-14.46,6.55-22.9,6.55
				c-5.98,0-11.06-0.99-15.23-2.97c-4.17-1.98-7.58-4.47-10.24-7.49c-2.65-3.01-4.68-6.06-6.08-9.15h-0.94v59.46H1624.46z
				 M1654.63,440.74c0,6.61,0.92,12.37,2.75,17.29c1.83,4.92,4.49,8.74,7.96,11.47s7.69,4.09,12.66,4.09
				c5.02,0,9.26-1.39,12.73-4.16c3.47-2.77,6.11-6.63,7.92-11.57s2.71-10.65,2.71-17.11c0-6.41-0.89-12.06-2.68-16.93
				c-1.78-4.87-4.41-8.68-7.88-11.43c-3.47-2.75-7.74-4.12-12.8-4.12c-5.02,0-9.25,1.33-12.7,3.98c-3.45,2.65-6.09,6.42-7.92,11.29
				C1655.54,428.39,1654.63,434.13,1654.63,440.74z"/>
			<path class="st12" d="M1753.3,537.96V385.18h30.38v18.66h1.37c1.35-2.99,3.31-6.04,5.9-9.15c2.58-3.11,5.96-5.71,10.13-7.81
				c4.17-2.1,9.37-3.15,15.59-3.15c8.1,0,15.58,2.11,22.43,6.33c6.85,4.22,12.32,10.56,16.42,19.03c4.1,8.46,6.15,19.06,6.15,31.79
				c0,12.39-1.99,22.85-5.97,31.36c-3.98,8.51-9.38,14.95-16.2,19.31c-6.82,4.37-14.46,6.55-22.9,6.55
				c-5.98,0-11.06-0.99-15.23-2.97c-4.17-1.98-7.58-4.47-10.24-7.49c-2.65-3.01-4.68-6.06-6.08-9.15h-0.94v59.46H1753.3z
				 M1783.46,440.74c0,6.61,0.92,12.37,2.75,17.29c1.83,4.92,4.49,8.74,7.96,11.47s7.69,4.09,12.66,4.09
				c5.02,0,9.26-1.39,12.73-4.16c3.47-2.77,6.11-6.63,7.92-11.57s2.71-10.65,2.71-17.11c0-6.41-0.89-12.06-2.68-16.93
				c-1.78-4.87-4.41-8.68-7.88-11.43c-3.47-2.75-7.74-4.12-12.8-4.12c-5.02,0-9.25,1.33-12.7,3.98c-3.45,2.65-6.09,6.42-7.92,11.29
				C1784.38,428.39,1783.46,434.13,1783.46,440.74z"/>
		</g>
	</g>
</g>
</svg>
